<?xml version="1.0" encoding="UTF-8"?>
<svg width="16px" height="16px" viewBox="0 0 16 16" version="1.1" xmlns="http://www.w3.org/2000/svg" xmlns:xlink="http://www.w3.org/1999/xlink">
    <!-- Generator: sketchtool 51.3 (57544) - http://www.bohemiancoding.com/sketch -->
    <title>97EA9C5E-4091-4782-B8EF-1F92E42D92AF</title>
    <desc>Created with sketchtool.</desc>
    <defs></defs>
    <g id="Page-1" stroke="none" stroke-width="1" fill="none" fill-rule="evenodd">
        <g id="List-View" transform="translate(-1250.000000, -186.000000)" fill="#BABABA" fill-rule="nonzero">
            <g id="heading" transform="translate(275.000000, 103.000000)">
                <g id="search-and-view" transform="translate(0.000000, 68.000000)">
                    <g id="switch" transform="translate(975.000000, 15.000000)">
                        <g id="table">
                            <path d="M2.5638852,-1.03584031e-16 L13.4361148,1.03584031e-16 C14.3276335,-6.01853049e-17 14.6509198,0.0928256111 14.9768457,0.267132704 C15.3027716,0.441439796 15.5585602,0.697228371 15.7328673,1.0231543 C15.9071744,1.34908022 16,1.67236646 16,2.5638852 L16,13.4361148 C16,14.3276335 15.9071744,14.6509198 15.7328673,14.9768457 C15.5585602,15.3027716 15.3027716,15.5585602 14.9768457,15.7328673 C14.6509198,15.9071744 14.3276335,16 13.4361148,16 L2.5638852,16 C1.67236646,16 1.34908022,15.9071744 1.0231543,15.7328673 C0.697228371,15.5585602 0.441439796,15.3027716 0.267132704,14.9768457 C0.0928256111,14.6509198 4.01235366e-17,14.3276335 -6.90560205e-17,13.4361148 L6.90560205e-17,2.5638852 C-4.01235366e-17,1.67236646 0.0928256111,1.34908022 0.267132704,1.0231543 C0.441439796,0.697228371 0.697228371,0.441439796 1.0231543,0.267132704 C1.34908022,0.0928256111 1.67236646,6.01853049e-17 2.5638852,-1.03584031e-16 Z M3.2819426,2 C2.83618323,2 2.67454011,2.04641281 2.51157715,2.13356635 C2.34861419,2.2207199 2.2207199,2.34861419 2.13356635,2.51157715 C2.04641281,2.67454011 2,2.83618323 2,3.2819426 L2,12.7180574 C2,13.1638168 2.04641281,13.3254599 2.13356635,13.4884229 C2.2207199,13.6513858 2.34861419,13.7792801 2.51157715,13.8664336 C2.67454011,13.9535872 2.83618323,14 3.2819426,14 L12.7180574,14 C13.1638168,14 13.3254599,13.9535872 13.4884229,13.8664336 C13.6513858,13.7792801 13.7792801,13.6513858 13.8664336,13.4884229 C13.9535872,13.3254599 14,13.1638168 14,12.7180574 L14,3.2819426 C14,2.83618323 13.9535872,2.67454011 13.8664336,2.51157715 C13.7792801,2.34861419 13.6513858,2.2207199 13.4884229,2.13356635 C13.3254599,2.04641281 13.1638168,2 12.7180574,2 L3.2819426,2 Z M5,4 L11,4 C11.5522847,4 12,4.44771525 12,5 C12,5.55228475 11.5522847,6 11,6 L5,6 C4.44771525,6 4,5.55228475 4,5 C4,4.44771525 4.44771525,4 5,4 Z M5.02304645,7 L9.54964481,7 C10.1019296,7 10.5496448,7.44771525 10.5496448,8 C10.5496448,8.55228475 10.1019296,9 9.54964481,9 L5.02304645,9 C4.4707617,9 4.02304645,8.55228475 4.02304645,8 C4.02304645,7.44771525 4.4707617,7 5.02304645,7 Z M5.02304645,10 L8.09928962,10 C8.65157437,10 9.09928962,10.4477153 9.09928962,11 C9.09928962,11.5522847 8.65157437,12 8.09928962,12 L5.02304645,12 C4.4707617,12 4.02304645,11.5522847 4.02304645,11 C4.02304645,10.4477153 4.4707617,10 5.02304645,10 Z" id="Rectangle"></path>
                        </g>
                    </g>
                </g>
            </g>
        </g>
    </g>
</svg>