<?xml version="1.0" encoding="UTF-8"?>
<svg width="18px" height="18px" viewBox="0 0 18 18" version="1.1" xmlns="http://www.w3.org/2000/svg" xmlns:xlink="http://www.w3.org/1999/xlink">
    <!-- Generator: sketchtool 51.3 (57544) - http://www.bohemiancoding.com/sketch -->
    <title>4783F4FE-812D-4FAF-9795-B2D8657018DC</title>
    <desc>Created with sketchtool.</desc>
    <defs></defs>
    <g id="Page-1" stroke="none" stroke-width="1" fill="none" fill-rule="evenodd">
        <g id="List-View" transform="translate(-287.000000, -185.000000)">
            <g id="heading" transform="translate(275.000000, 103.000000)">
                <g id="search-and-view" transform="translate(0.000000, 68.000000)">
                    <g id="search">
                        <g transform="translate(9.000000, 11.000000)" id="Shape">
                            <polygon transform="translate(12.000000, 12.000000) scale(1, -1) translate(-12.000000, -12.000000) " points="24 0 0 0 0 24 24 24"></polygon>
                            <path d="M15.502,9.491 L14.708,9.491 L14.432,9.765 C15.407,10.902 16,12.376 16,13.991 C16,17.581 13.09,20.491 9.5,20.491 C5.91,20.491 3,17.581 3,13.991 C3,10.401 5.91,7.491 9.5,7.491 C11.115,7.491 12.588,8.083 13.725,9.057 L14.001,8.783 L14.001,7.991 L18.999,3 L20.49,4.491 L15.502,9.491 L15.502,9.491 Z M9.5,9.491 C7.014,9.491 5,11.505 5,13.991 C5,16.476 7.014,18.491 9.5,18.491 C11.985,18.491 14,16.476 14,13.991 C14,11.505 11.985,9.491 9.5,9.491 L9.5,9.491 Z" fill="#4C8EDE" transform="translate(11.745000, 11.745500) scale(1, -1) translate(-11.745000, -11.745500) "></path>
                        </g>
                    </g>
                </g>
            </g>
        </g>
    </g>
</svg>